# xmcd
#
# Track frame offsets:
#	150
#	13122
#	28812
#	40967
#	55237
#	68267
#	82565
#	97802
#	110850
#	122030
#	139382
#	151685
#	164062
#	179595
#	190277
#	201335
#	218070
#	232912
#	247315
#	262905
#	277637
#
# Disc length: 3864 seconds
#
# Revision: 1
# Processed by: cddbd v1.4PL0 Copyright (c) Steve Scherf et al.
# Submitted via: CDmax 1.9
#
DISCID=220f1615
DTITLE=Swing Shift Band - Swing and Other Things
DYEAR=1993
DGENRE=Country
TTITLE0=(Turn Me Loose and) Let Me Swing
TTITLE1=Caravan
TTITLE2=Bonaparte's Retreat
TTITLE3=Perdido
TTITLE4=Midnight Comes and Goes
TTITLE5=Fat Boy Rag
TTITLE6=Blue of a Kind
TTITLE7=Same Ole Me
TTITLE8=Columbus Stockade Blues
TTITLE9=Blue Eyes
TTITLE10=Loose Tights
TTITLE11=Sugar Moon
TTITLE12=You and Me
TTITLE13=Texas With the X Removed
TTITLE14=Take the A Train
TTITLE15=My Weakness Is Too Strong
TTITLE16=Midnight In Old Amarillo
TTITLE17=I'm Getting Nowhere (At Getting Over You)
TTITLE18=The Memory
TTITLE19=Moonlight Serenade
TTITLE20=The Good Ole Days Are Right Now
EXTD=LABEL =Step One Records\nID =SOR-0039\nUPC =021167-00392-5\nCOPYRIGHT=
EXTD=1993
EXTT0=
EXTT1=
EXTT2=
EXTT3=
EXTT4=
EXTT5=
EXTT6=
EXTT7=
EXTT8=
EXTT9=
EXTT10=
EXTT11=
EXTT12=
EXTT13=
EXTT14=
EXTT15=
EXTT16=
EXTT17=
EXTT18=
EXTT19=
EXTT20=
PLAYORDER=
